<svg width="16" height="16" viewBox="0 0 16 16" fill="none" xmlns="http://www.w3.org/2000/svg">
<path fill-rule="evenodd" clip-rule="evenodd" d="M10.1304 11.8005C10.3884 12.0632 10.8105 12.067 11.0732 11.809L14.4671 8.47563C14.5947 8.35028 14.6666 8.17889 14.6666 8C14.6666 7.82111 14.5947 7.64972 14.4671 7.52437L11.0732 4.19103C10.8105 3.93304 10.3884 3.93684 10.1304 4.19953C9.87241 4.46221 9.87622 4.88431 10.1389 5.1423L12.3698 7.33333L1.99998 7.33333C1.63179 7.33333 1.33331 7.63181 1.33331 8C1.33331 8.36819 1.63179 8.66667 1.99998 8.66667L12.3698 8.66667L10.1389 10.8577C9.87622 11.1157 9.87241 11.5378 10.1304 11.8005Z" fill="#636363"/>
</svg>
