<svg width="16" height="16" viewBox="0 0 16 16" fill="none" xmlns="http://www.w3.org/2000/svg">
<path fill-rule="evenodd" clip-rule="evenodd" d="M14.6667 6.66667L14.6667 12C14.6667 13.4728 13.4728 14.6667 12 14.6667L6.66669 14.6667C5.19393 14.6667 4.00002 13.4728 4.00002 12C2.52726 12 1.33335 10.8061 1.33335 9.33334L1.33335 7.00001L1.33335 4.00001C1.33335 2.52724 2.52726 1.33334 4.00002 1.33334L9.33335 1.33334C10.8061 1.33334 12 2.52725 12 4.00001C13.4728 4.00001 14.6667 5.19391 14.6667 6.66667ZM10.6667 4.00001L6.66669 4.00001C5.19393 4.00001 4.00002 5.19391 4.00002 6.66667L4.00002 10.6667C3.26364 10.6667 2.66669 10.0697 2.66669 9.33334L2.66669 7.00001L2.66669 4.00001C2.66669 3.26363 3.26364 2.66667 4.00002 2.66667L9.33335 2.66667C10.0697 2.66667 10.6667 3.26363 10.6667 4.00001ZM12 13.3333C12.7364 13.3333 13.3334 12.7364 13.3334 12L13.3334 6.66667C13.3334 5.93029 12.7364 5.33334 12 5.33334L6.66669 5.33334C5.93031 5.33334 5.33335 5.93029 5.33335 6.66667L5.33335 12C5.33335 12.7364 5.93031 13.3333 6.66669 13.3333L12 13.3333Z" fill="#37C978"/>
</svg>
