<svg width="12" height="13" viewBox="0 0 12 13" fill="none" xmlns="http://www.w3.org/2000/svg">
<path fill-rule="evenodd" clip-rule="evenodd" d="M2.94995 9.49774L3.34286 9.58864C3.71772 9.67537 4.08262 9.4375 4.15789 9.05734C4.23315 8.67719 3.99028 8.2987 3.61541 8.21197L1.68381 7.76508C1.33795 7.68506 0.995189 7.88157 0.88798 8.22133L0.359001 9.89773C0.242801 10.266 0.443892 10.6684 0.808149 10.7966C1.17241 10.9248 1.5619 10.7302 1.6781 10.3619L1.73609 10.1781C2.54573 11.2785 3.63187 11.9532 4.51356 12.2635C5.60969 12.6492 7.22357 12.7659 8.78027 11.988C10.3417 11.2078 11.2278 9.80147 11.5755 8.69943C11.6917 8.33118 11.4906 7.92874 11.1264 7.80056C10.7621 7.67238 10.3726 7.867 10.2564 8.23526C9.99686 9.05788 9.31759 10.1309 8.14508 10.7168C6.96779 11.3051 5.74203 11.2141 4.93436 10.9299C4.31551 10.7121 3.54823 10.2429 2.94995 9.49774ZM8.34229 5.14898C7.96743 5.06225 7.72456 4.68376 7.79982 4.30361C7.87509 3.92345 8.23999 3.68558 8.61485 3.77231L9.00776 3.86321C8.40947 3.11804 7.6422 2.64882 7.02335 2.43106C6.21568 2.14685 4.98992 2.05587 3.81263 2.64414C2.64012 3.23002 1.96084 4.30307 1.70127 5.1257C1.58507 5.49395 1.19558 5.68857 0.831319 5.56039C0.46706 5.43222 0.265969 5.02978 0.38217 4.66152C0.729913 3.55948 1.61597 2.15318 3.17744 1.37294C4.73414 0.595092 6.34802 0.711773 7.44415 1.09749C8.32584 1.40774 9.41198 2.08248 10.2216 3.18282L10.2796 2.99905C10.3958 2.63079 10.7853 2.43617 11.1496 2.56435C11.5138 2.69253 11.7149 3.09497 11.5987 3.46322L11.0697 5.13962C10.9625 5.47938 10.6198 5.67589 10.2739 5.59587L8.34229 5.14898Z" fill="#636363"/>
</svg>
